<svg xmlns="http://www.w3.org/2000/svg" xmlns:xlink="http://www.w3.org/1999/xlink" viewBox="109.917 1842.92 155 155">
  <defs>
    <style>
      .cls-1 {
        fill: #e31c0a;
      }

      .cls-2 {
        fill: #b7afaf;
      }

      .cls-3 {
        fill: #fff;
        stroke: #95989a;
      }

      .cls-4 {
        stroke: none;
      }

      .cls-5 {
        fill: none;
      }

      .cls-6 {
        filter: url(#Ellipse_33);
      }
    </style>
    <filter id="Ellipse_33" x="109.917" y="1842.92" width="155" height="155" filterUnits="userSpaceOnUse">
      <feOffset dy="10" input="SourceAlpha"/>
      <feGaussianBlur stdDeviation="7.5" result="blur"/>
      <feFlood flood-opacity="0.941"/>
      <feComposite operator="in" in2="blur"/>
      <feComposite in="SourceGraphic"/>
    </filter>
  </defs>
  <g id="Group_43" data-name="Group 43" transform="translate(132.417 1855.42)">
    <g class="cls-6" transform="matrix(1, 0, 0, 1, -132.42, -1855.42)">
      <circle id="Ellipse_33-2" data-name="Ellipse 33" class="cls-1" cx="55" cy="55" r="55" transform="translate(132.42 1855.42)"/>
    </g>
    <g id="Group_42" data-name="Group 42" transform="translate(5.281 34.093)">
      <rect id="Rectangle_101" data-name="Rectangle 101" class="cls-2" width="99.914" height="41.154" rx="10" transform="translate(0 0)"/>
      <g id="Group_33" data-name="Group 33" transform="translate(6.602 7.483)">
        <g id="Rectangle_102" data-name="Rectangle 102" class="cls-3" transform="translate(0 0)">
          <rect class="cls-4" width="5.942" height="5.062" rx="2.531"/>
          <rect class="cls-5" x="0.5" y="0.5" width="4.942" height="4.062" rx="2.031"/>
        </g>
        <g id="Rectangle_103" data-name="Rectangle 103" class="cls-3" transform="translate(7.483 0)">
          <rect class="cls-4" width="5.942" height="5.062" rx="2.531"/>
          <rect class="cls-5" x="0.5" y="0.5" width="4.942" height="4.062" rx="2.031"/>
        </g>
        <g id="Rectangle_104" data-name="Rectangle 104" class="cls-3" transform="translate(14.965 0)">
          <rect class="cls-4" width="5.942" height="5.062" rx="2.531"/>
          <rect class="cls-5" x="0.5" y="0.5" width="4.942" height="4.062" rx="2.031"/>
        </g>
        <g id="Rectangle_105" data-name="Rectangle 105" class="cls-3" transform="translate(22.448 0)">
          <rect class="cls-4" width="5.942" height="5.062" rx="2.531"/>
          <rect class="cls-5" x="0.5" y="0.5" width="4.942" height="4.062" rx="2.031"/>
        </g>
        <g id="Rectangle_106" data-name="Rectangle 106" class="cls-3" transform="translate(29.93 0)">
          <rect class="cls-4" width="5.942" height="5.062" rx="2.531"/>
          <rect class="cls-5" x="0.5" y="0.5" width="4.942" height="4.062" rx="2.031"/>
        </g>
        <g id="Rectangle_107" data-name="Rectangle 107" class="cls-3" transform="translate(37.413 0)">
          <rect class="cls-4" width="5.942" height="5.062" rx="2.531"/>
          <rect class="cls-5" x="0.5" y="0.5" width="4.942" height="4.062" rx="2.031"/>
        </g>
        <g id="Rectangle_108" data-name="Rectangle 108" class="cls-3" transform="translate(3.741 6.162)">
          <rect class="cls-4" width="5.942" height="5.062" rx="2.531"/>
          <rect class="cls-5" x="0.5" y="0.5" width="4.942" height="4.062" rx="2.031"/>
        </g>
        <g id="Rectangle_109" data-name="Rectangle 109" class="cls-3" transform="translate(11.224 6.162)">
          <rect class="cls-4" width="5.942" height="5.062" rx="2.531"/>
          <rect class="cls-5" x="0.5" y="0.5" width="4.942" height="4.062" rx="2.031"/>
        </g>
        <g id="Rectangle_110" data-name="Rectangle 110" class="cls-3" transform="translate(18.706 6.162)">
          <rect class="cls-4" width="5.942" height="5.062" rx="2.531"/>
          <rect class="cls-5" x="0.5" y="0.5" width="4.942" height="4.062" rx="2.031"/>
        </g>
        <g id="Rectangle_111" data-name="Rectangle 111" class="cls-3" transform="translate(26.189 6.162)">
          <rect class="cls-4" width="5.942" height="5.062" rx="2.531"/>
          <rect class="cls-5" x="0.5" y="0.5" width="4.942" height="4.062" rx="2.031"/>
        </g>
        <g id="Rectangle_112" data-name="Rectangle 112" class="cls-3" transform="translate(33.671 6.162)">
          <rect class="cls-4" width="5.942" height="5.062" rx="2.531"/>
          <rect class="cls-5" x="0.5" y="0.5" width="4.942" height="4.062" rx="2.031"/>
        </g>
        <g id="Rectangle_113" data-name="Rectangle 113" class="cls-3" transform="translate(41.154 6.162)">
          <rect class="cls-4" width="5.942" height="5.062" rx="2.531"/>
          <rect class="cls-5" x="0.5" y="0.5" width="4.942" height="4.062" rx="2.031"/>
        </g>
        <g id="Rectangle_114" data-name="Rectangle 114" class="cls-3" transform="translate(0 12.324)">
          <rect class="cls-4" width="5.942" height="5.062" rx="2.531"/>
          <rect class="cls-5" x="0.5" y="0.5" width="4.942" height="4.062" rx="2.031"/>
        </g>
        <g id="Rectangle_115" data-name="Rectangle 115" class="cls-3" transform="translate(7.483 12.324)">
          <rect class="cls-4" width="5.942" height="5.062" rx="2.531"/>
          <rect class="cls-5" x="0.5" y="0.5" width="4.942" height="4.062" rx="2.031"/>
        </g>
        <g id="Rectangle_116" data-name="Rectangle 116" class="cls-3" transform="translate(14.965 12.324)">
          <rect class="cls-4" width="5.942" height="5.062" rx="2.531"/>
          <rect class="cls-5" x="0.5" y="0.5" width="4.942" height="4.062" rx="2.031"/>
        </g>
        <g id="Rectangle_117" data-name="Rectangle 117" class="cls-3" transform="translate(22.448 12.324)">
          <rect class="cls-4" width="5.942" height="5.062" rx="2.531"/>
          <rect class="cls-5" x="0.5" y="0.5" width="4.942" height="4.062" rx="2.031"/>
        </g>
        <g id="Rectangle_118" data-name="Rectangle 118" class="cls-3" transform="translate(29.93 12.324)">
          <rect class="cls-4" width="5.942" height="5.062" rx="2.531"/>
          <rect class="cls-5" x="0.5" y="0.5" width="4.942" height="4.062" rx="2.031"/>
        </g>
        <g id="Rectangle_119" data-name="Rectangle 119" class="cls-3" transform="translate(37.413 12.324)">
          <rect class="cls-4" width="5.942" height="5.062" rx="2.531"/>
          <rect class="cls-5" x="0.5" y="0.5" width="4.942" height="4.062" rx="2.031"/>
        </g>
      </g>
      <g id="Rectangle_120" data-name="Rectangle 120" class="cls-3" transform="translate(10.344 25.749)">
        <rect class="cls-4" width="5.942" height="5.062" rx="2.531"/>
        <rect class="cls-5" x="0.5" y="0.5" width="4.942" height="4.062" rx="2.031"/>
      </g>
      <g id="Rectangle_121" data-name="Rectangle 121" class="cls-3" transform="translate(17.826 25.749)">
        <rect class="cls-4" width="5.942" height="5.062" rx="2.531"/>
        <rect class="cls-5" x="0.5" y="0.5" width="4.942" height="4.062" rx="2.031"/>
      </g>
      <g id="Rectangle_122" data-name="Rectangle 122" class="cls-3" transform="translate(25.308 25.749)">
        <rect class="cls-4" width="5.942" height="5.062" rx="2.531"/>
        <rect class="cls-5" x="0.5" y="0.5" width="4.942" height="4.062" rx="2.031"/>
      </g>
      <g id="Rectangle_123" data-name="Rectangle 123" class="cls-3" transform="translate(32.791 25.749)">
        <rect class="cls-4" width="5.942" height="5.062" rx="2.531"/>
        <rect class="cls-5" x="0.5" y="0.5" width="4.942" height="4.062" rx="2.031"/>
      </g>
      <g id="Rectangle_124" data-name="Rectangle 124" class="cls-3" transform="translate(40.274 25.749)">
        <rect class="cls-4" width="5.942" height="5.062" rx="2.531"/>
        <rect class="cls-5" x="0.5" y="0.5" width="4.942" height="4.062" rx="2.031"/>
      </g>
      <g id="Rectangle_125" data-name="Rectangle 125" class="cls-3" transform="translate(47.756 25.749)">
        <rect class="cls-4" width="5.942" height="5.062" rx="2.531"/>
        <rect class="cls-5" x="0.5" y="0.5" width="4.942" height="4.062" rx="2.031"/>
      </g>
      <g id="Rectangle_126" data-name="Rectangle 126" class="cls-3" transform="translate(6.602 31.911)">
        <rect class="cls-4" width="5.942" height="5.062" rx="2.531"/>
        <rect class="cls-5" x="0.5" y="0.5" width="4.942" height="4.062" rx="2.031"/>
      </g>
      <g id="Rectangle_127" data-name="Rectangle 127" class="cls-3" transform="translate(13.204 31.911)">
        <rect class="cls-4" width="30.15" height="5.062" rx="2.531"/>
        <rect class="cls-5" x="0.5" y="0.5" width="29.15" height="4.062" rx="2.031"/>
      </g>
      <g id="Rectangle_128" data-name="Rectangle 128" class="cls-3" transform="translate(44.015 31.911)">
        <rect class="cls-4" width="5.942" height="5.062" rx="2.531"/>
        <rect class="cls-5" x="0.5" y="0.5" width="4.942" height="4.062" rx="2.031"/>
      </g>
      <g id="Rectangle_129" data-name="Rectangle 129" class="cls-3" transform="translate(56.999 31.911)">
        <rect class="cls-4" width="5.942" height="5.062" rx="2.531"/>
        <rect class="cls-5" x="0.5" y="0.5" width="4.942" height="4.062" rx="2.031"/>
      </g>
      <g id="Rectangle_130" data-name="Rectangle 130" class="cls-3" transform="translate(64.482 31.911)">
        <rect class="cls-4" width="5.942" height="5.062" rx="2.531"/>
        <rect class="cls-5" x="0.5" y="0.5" width="4.942" height="4.062" rx="2.031"/>
      </g>
      <g id="Rectangle_131" data-name="Rectangle 131" class="cls-3" transform="translate(60.741 26.849)">
        <rect class="cls-4" width="5.942" height="5.062" rx="2.531"/>
        <rect class="cls-5" x="0.5" y="0.5" width="4.942" height="4.062" rx="2.031"/>
      </g>
      <g id="Group_34" data-name="Group 34" transform="translate(75.926 13.645)">
        <g id="Rectangle_132" data-name="Rectangle 132" class="cls-3" transform="translate(0 0)">
          <rect class="cls-4" width="5.942" height="5.062" rx="2.531"/>
          <rect class="cls-5" x="0.5" y="0.5" width="4.942" height="4.062" rx="2.031"/>
        </g>
        <g id="Rectangle_133" data-name="Rectangle 133" class="cls-3" transform="translate(7.483 0)">
          <rect class="cls-4" width="5.942" height="5.062" rx="2.531"/>
          <rect class="cls-5" x="0.5" y="0.5" width="4.942" height="4.062" rx="2.031"/>
        </g>
        <g id="Rectangle_134" data-name="Rectangle 134" class="cls-3" transform="translate(14.965 0)">
          <rect class="cls-4" width="5.942" height="5.062" rx="2.531"/>
          <rect class="cls-5" x="0.5" y="0.5" width="4.942" height="4.062" rx="2.031"/>
        </g>
      </g>
      <g id="Group_35" data-name="Group 35" transform="translate(75.926 19.367)">
        <g id="Rectangle_135" data-name="Rectangle 135" class="cls-3" transform="translate(0 0)">
          <rect class="cls-4" width="5.942" height="5.062" rx="2.531"/>
          <rect class="cls-5" x="0.5" y="0.5" width="4.942" height="4.062" rx="2.031"/>
        </g>
        <g id="Rectangle_136" data-name="Rectangle 136" class="cls-3" transform="translate(7.483 0)">
          <rect class="cls-4" width="5.942" height="5.062" rx="2.531"/>
          <rect class="cls-5" x="0.5" y="0.5" width="4.942" height="4.062" rx="2.031"/>
        </g>
        <g id="Rectangle_137" data-name="Rectangle 137" class="cls-3" transform="translate(14.965 0)">
          <rect class="cls-4" width="5.942" height="5.062" rx="2.531"/>
          <rect class="cls-5" x="0.5" y="0.5" width="4.942" height="4.062" rx="2.031"/>
        </g>
      </g>
      <g id="Group_36" data-name="Group 36" transform="translate(75.926 25.309)">
        <g id="Rectangle_138" data-name="Rectangle 138" class="cls-3" transform="translate(0 0)">
          <rect class="cls-4" width="5.942" height="5.062" rx="2.531"/>
          <rect class="cls-5" x="0.5" y="0.5" width="4.942" height="4.062" rx="2.031"/>
        </g>
        <g id="Rectangle_139" data-name="Rectangle 139" class="cls-3" transform="translate(7.483 0)">
          <rect class="cls-4" width="5.942" height="5.062" rx="2.531"/>
          <rect class="cls-5" x="0.5" y="0.5" width="4.942" height="4.062" rx="2.031"/>
        </g>
        <g id="Rectangle_140" data-name="Rectangle 140" class="cls-3" transform="translate(14.965 0)">
          <rect class="cls-4" width="5.942" height="5.062" rx="2.531"/>
          <rect class="cls-5" x="0.5" y="0.5" width="4.942" height="4.062" rx="2.031"/>
        </g>
      </g>
      <g id="Group_37" data-name="Group 37" transform="translate(75.926 31.251)">
        <g id="Rectangle_141" data-name="Rectangle 141" class="cls-3" transform="translate(0 0)">
          <rect class="cls-4" width="5.942" height="5.062" rx="2.531"/>
          <rect class="cls-5" x="0.5" y="0.5" width="4.942" height="4.062" rx="2.031"/>
        </g>
        <g id="Rectangle_142" data-name="Rectangle 142" class="cls-3" transform="translate(7.483 0)">
          <rect class="cls-4" width="5.942" height="5.062" rx="2.531"/>
          <rect class="cls-5" x="0.5" y="0.5" width="4.942" height="4.062" rx="2.031"/>
        </g>
        <g id="Rectangle_143" data-name="Rectangle 143" class="cls-3" transform="translate(14.965 0)">
          <rect class="cls-4" width="5.942" height="5.062" rx="2.531"/>
          <rect class="cls-5" x="0.5" y="0.5" width="4.942" height="4.062" rx="2.031"/>
        </g>
      </g>
      <g id="Group_38" data-name="Group 38" transform="translate(8.803 1.541)">
        <g id="Rectangle_144" data-name="Rectangle 144" class="cls-3">
          <rect class="cls-4" width="5.942" height="5.062" rx="2.531"/>
          <rect class="cls-5" x="0.5" y="0.5" width="4.942" height="4.062" rx="2.031"/>
        </g>
        <g id="Rectangle_145" data-name="Rectangle 145" class="cls-3" transform="translate(7.483)">
          <rect class="cls-4" width="5.942" height="5.062" rx="2.531"/>
          <rect class="cls-5" x="0.5" y="0.5" width="4.942" height="4.062" rx="2.031"/>
        </g>
        <g id="Rectangle_146" data-name="Rectangle 146" class="cls-3" transform="translate(14.965)">
          <rect class="cls-4" width="5.942" height="5.062" rx="2.531"/>
          <rect class="cls-5" x="0.5" y="0.5" width="4.942" height="4.062" rx="2.031"/>
        </g>
      </g>
      <g id="Group_39" data-name="Group 39" transform="translate(30.59 1.541)">
        <g id="Rectangle_147" data-name="Rectangle 147" class="cls-3" transform="translate(0)">
          <rect class="cls-4" width="5.942" height="5.062" rx="2.531"/>
          <rect class="cls-5" x="0.5" y="0.5" width="4.942" height="4.062" rx="2.031"/>
        </g>
        <g id="Rectangle_148" data-name="Rectangle 148" class="cls-3" transform="translate(7.483)">
          <rect class="cls-4" width="5.942" height="5.062" rx="2.531"/>
          <rect class="cls-5" x="0.5" y="0.5" width="4.942" height="4.062" rx="2.031"/>
        </g>
        <g id="Rectangle_149" data-name="Rectangle 149" class="cls-3" transform="translate(14.965)">
          <rect class="cls-4" width="5.942" height="5.062" rx="2.531"/>
          <rect class="cls-5" x="0.5" y="0.5" width="4.942" height="4.062" rx="2.031"/>
        </g>
      </g>
      <g id="Group_40" data-name="Group 40" transform="translate(52.378 1.541)">
        <g id="Rectangle_150" data-name="Rectangle 150" class="cls-3" transform="translate(0)">
          <rect class="cls-4" width="5.942" height="5.062" rx="2.531"/>
          <rect class="cls-5" x="0.5" y="0.5" width="4.942" height="4.062" rx="2.031"/>
        </g>
        <g id="Rectangle_151" data-name="Rectangle 151" class="cls-3" transform="translate(7.483)">
          <rect class="cls-4" width="5.942" height="5.062" rx="2.531"/>
          <rect class="cls-5" x="0.5" y="0.5" width="4.942" height="4.062" rx="2.031"/>
        </g>
        <g id="Rectangle_152" data-name="Rectangle 152" class="cls-3" transform="translate(14.965)">
          <rect class="cls-4" width="5.942" height="5.062" rx="2.531"/>
          <rect class="cls-5" x="0.5" y="0.5" width="4.942" height="4.062" rx="2.031"/>
        </g>
      </g>
      <g id="Group_41" data-name="Group 41" transform="translate(74.165 1.541)">
        <g id="Rectangle_153" data-name="Rectangle 153" class="cls-3">
          <rect class="cls-4" width="5.942" height="5.062" rx="2.531"/>
          <rect class="cls-5" x="0.5" y="0.5" width="4.942" height="4.062" rx="2.031"/>
        </g>
        <g id="Rectangle_154" data-name="Rectangle 154" class="cls-3" transform="translate(7.483)">
          <rect class="cls-4" width="5.942" height="5.062" rx="2.531"/>
          <rect class="cls-5" x="0.5" y="0.5" width="4.942" height="4.062" rx="2.031"/>
        </g>
        <g id="Rectangle_155" data-name="Rectangle 155" class="cls-3" transform="translate(14.965)">
          <rect class="cls-4" width="5.942" height="5.062" rx="2.531"/>
          <rect class="cls-5" x="0.5" y="0.5" width="4.942" height="4.062" rx="2.031"/>
        </g>
      </g>
    </g>
    <path id="Path_13" data-name="Path 13" d="M3218.181,1200.881s2.873-13.849,13.012-3.693,12.306-6.593,12.306-6.593l1.676.633s-3.763,19.089-14.987,7.008-12.007,13.9-12.007,13.9h-1.945l1.468-9.3Z" transform="translate(-3161.489 -1178.059)"/>
  </g>
</svg>
