<svg id="Group_115" data-name="Group 115" xmlns="http://www.w3.org/2000/svg" viewBox="2919 1413 786 488">
  <defs>
    <style>
      .cls-1, .cls-4 {
        fill: #fff;
      }

      .cls-1, .cls-3 {
        stroke: #95989a;
      }

      .cls-2, .cls-3 {
        fill: #fc0606;
      }

      .cls-4 {
        font-size: 42px;
      }

      .cls-4, .cls-6 {
        font-family: DiwanKufi, Diwan Kufi;
      }

      .cls-5 {
        font-family: LucidaGrande, Lucida Grande;
      }

      .cls-6 {
        fill: #010203;
        font-size: 49px;
      }

      .cls-7 {
        stroke: none;
      }

      .cls-8 {
        fill: none;
      }
    </style>
  </defs>
  <g id="Rectangle_245" data-name="Rectangle 245" class="cls-1" transform="translate(2919 1413)">
    <rect class="cls-7" width="783" height="488" rx="114"/>
    <rect class="cls-8" x="0.5" y="0.5" width="782" height="487" rx="113.5"/>
  </g>
  <path id="Rectangle_246" data-name="Rectangle 246" class="cls-2" d="M114,0H669A114,114,0,0,1,783,114v55a0,0,0,0,1,0,0H0a0,0,0,0,1,0,0V114A114,114,0,0,1,114,0Z" transform="translate(2922 1413)"/>
  <g id="Rectangle_247" data-name="Rectangle 247" class="cls-3" transform="translate(2919 1810)">
    <path class="cls-7" d="M0,0H783a0,0,0,0,1,0,0V0a91,91,0,0,1-91,91H91A91,91,0,0,1,0,0V0A0,0,0,0,1,0,0Z"/>
    <path class="cls-8" d="M.895.5H782.105a.395.395,0,0,1,.395.395v0A89.605,89.605,0,0,1,692.895,90.5H90.105A89.605,89.605,0,0,1,.5.895v0A.395.395,0,0,1,.895.5Z"/>
  </g>
  <text id="_h1_Hello_h1_h2_my_name_is_h2_" data-name="&lt;h1&gt;Hello&lt;/h1&gt;
&lt;h2&gt;my name is&lt;/h2&gt;" class="cls-4" transform="translate(3118 1477)"><tspan x="0" y="0">&lt;</tspan><tspan class="cls-5" y="0">h</tspan><tspan y="0">1&gt;</tspan><tspan class="cls-5" y="0">Hello</tspan><tspan y="0">&lt;/</tspan><tspan class="cls-5" y="0">h</tspan><tspan y="0">1&gt;</tspan><tspan x="0" y="79">&lt;</tspan><tspan class="cls-5" y="79">h</tspan><tspan y="79">2&gt;</tspan><tspan class="cls-5" y="79">my</tspan><tspan y="79"> </tspan><tspan class="cls-5" y="79">name</tspan><tspan y="79"> </tspan><tspan class="cls-5" y="79">is</tspan><tspan y="79">&lt;/</tspan><tspan class="cls-5" y="79">h</tspan><tspan y="79">2&gt;</tspan></text>
  <text id="_h1_strong_ROB_strong_h1_" data-name="&lt;h1&gt;&lt;strong&gt;ROB&lt;/strong&gt;&lt;/h1&gt;" class="cls-6" transform="translate(2953 1706)"><tspan x="0" y="0">&lt;</tspan><tspan class="cls-5" y="0">h</tspan><tspan y="0">1&gt;&lt;</tspan><tspan class="cls-5" y="0">strong</tspan><tspan y="0">&gt;</tspan><tspan class="cls-5" y="0">ROB</tspan><tspan y="0">&lt;/</tspan><tspan class="cls-5" y="0">strong</tspan><tspan y="0">&gt;&lt;/</tspan><tspan class="cls-5" y="0">h</tspan><tspan y="0">1&gt;</tspan></text>
</svg>
